<svg width="22" height="25" viewBox="0 0 22 25" fill="none" xmlns="http://www.w3.org/2000/svg">
<path fill-rule="evenodd" clip-rule="evenodd" d="M15.4 5.68182C15.4 8.8198 12.9375 11.3636 9.9 11.3636C6.86244 11.3636 4.4 8.8198 4.4 5.68182C4.4 2.54384 6.86244 0 9.9 0C12.9375 0 15.4 2.54384 15.4 5.68182ZM7.7 13.6364C3.44741 13.6364 0 17.1977 0 21.5909C0 23.4737 1.47747 25 3.3 25H11.4502C11.9256 25 12.1957 24.4001 11.9495 23.9799C11.3468 22.9513 11 21.7448 11 20.4545C11 18.1431 12.1134 16.1002 13.8164 14.8672C14.2162 14.5778 14.1821 13.9139 13.7046 13.8093C13.187 13.696 12.6502 13.6364 12.1 13.6364H7.7ZM17.6 15.9091C18.2075 15.9091 18.7 16.4178 18.7 17.0455V19.3182H20.9C21.5075 19.3182 22 19.8269 22 20.4545C22 21.0822 21.5075 21.5909 20.9 21.5909H18.7V23.8636C18.7 24.4911 18.2075 25 17.6 25C16.9925 25 16.5 24.4911 16.5 23.8636V21.5909H14.3C13.6925 21.5909 13.2 21.0822 13.2 20.4545C13.2 19.8269 13.6925 19.3182 14.3 19.3182H16.5V17.0455C16.5 16.4178 16.9925 15.9091 17.6 15.9091Z" fill="white"/>
</svg>
