<svg width="25" height="25" viewBox="0 0 25 25" fill="none" xmlns="http://www.w3.org/2000/svg">
<path d="M4.008 3.29606C0.55644 6.45782 -0.807657 11.3761 0.473761 15.9224C0.659773 16.6044 0.949131 17.245 1.17648 17.8856L0.0810776 23.1139C0.0810776 23.3825 0.205076 23.5272 0.473761 23.5478L5.6201 22.9899C9.91905 25.697 15.3547 25.697 19.571 22.8245C25.5234 18.7535 26.8048 10.4048 22.2992 4.72195C17.7729 -0.981606 9.40234 -1.60155 4.02866 3.31673L4.008 3.29606ZM18.7029 12.7607C18.4963 17.431 13.4119 20.2414 9.34034 17.8649C5.18607 15.4265 5.26875 9.35093 9.48502 7.03644C13.722 4.70129 18.9096 7.96636 18.7029 12.7607Z" fill="white"/>
</svg>
