<svg width="73" height="73" viewBox="0 0 73 73" fill="none" xmlns="http://www.w3.org/2000/svg">
<path d="M36.5 0C16.3872 0 0 16.3581 0 36.5C0 56.6128 16.3581 73 36.5 73C56.6419 73 73 56.6419 73 36.5C73 16.3872 56.6419 0 36.5 0ZM15.6595 36.5C15.6595 35.2943 16.6369 34.317 17.8425 34.317H29.3106C30.5163 34.317 31.4936 35.2943 31.4936 36.5C31.4936 37.7056 30.5163 38.683 29.3106 38.683H17.8425C16.6369 38.683 15.6595 37.7056 15.6595 36.5ZM59.3198 28.9322L53.7895 47.0076C53.1491 49.1033 51.2281 50.5295 49.0451 50.5295H18.6284C17.4227 50.5295 16.4454 49.5521 16.4454 48.3465C16.4454 47.1408 17.4227 46.1635 18.6284 46.1635H49.0451C49.307 46.1635 49.5399 45.9888 49.6272 45.7269L55.1575 27.6515C55.2448 27.3896 55.1284 27.2149 55.0702 27.1276C55.012 27.0403 54.8373 26.8947 54.5754 26.8947H25.4103C24.2046 26.8947 23.2273 25.9174 23.2273 24.7117C23.2273 23.5061 24.2046 22.5287 25.4103 22.5287H54.5462C56.1471 22.5287 57.6025 23.2564 58.5339 24.5371C59.4653 25.8178 59.7855 27.3896 59.3198 28.9322Z" fill="#243445"/>
</svg>
