<svg width="21" height="21" viewBox="0 0 21 21" fill="none" xmlns="http://www.w3.org/2000/svg">
<path d="M18.8826 14.6916C17.1423 17.9949 13.7456 20.047 10.0163 20.047C4.49302 20.047 0 15.5507 0 10.0235C0 4.49625 4.49302 0 10.0163 0C13.7742 0 17.1843 2.07629 18.9146 5.41727C19.0971 5.76808 18.9594 6.20036 18.6088 6.38202C18.2582 6.56459 17.8263 6.42677 17.6447 6.07595C16.1602 3.21118 13.2376 1.43193 10.0163 1.43193C5.28269 1.43193 1.43094 5.28553 1.43094 10.0235C1.43094 14.7615 5.28269 18.6151 10.0163 18.6151C13.2126 18.6151 16.1246 16.8556 17.6161 14.024C17.8004 13.674 18.2332 13.5398 18.5829 13.7241C18.9326 13.9085 19.0668 14.3416 18.8826 14.6916ZM19.9039 10.4315C19.9871 10.3143 20.047 10.1783 20.047 10.0234C20.047 9.73706 19.878 9.48827 19.6347 9.37461L15.4217 6.56345C15.2017 6.41668 14.9191 6.40325 14.6875 6.52765C14.454 6.65294 14.3092 6.89549 14.3092 7.15949V9.02814L6.47952 8.5932C6.28188 8.58425 6.09139 8.65227 5.9483 8.78741C5.80521 8.92254 5.72383 9.1105 5.72383 9.30737V10.7393C5.72383 10.9362 5.80521 11.1241 5.94741 11.2593C6.08066 11.3854 6.25685 11.4553 6.43927 11.4553C6.45269 11.4553 6.4661 11.4544 6.47951 11.4535L14.3092 11.0185V12.8872C14.3092 13.1512 14.454 13.3937 14.6874 13.5181C14.793 13.5754 14.9092 13.6031 15.0246 13.6031C15.1632 13.6031 15.3018 13.5629 15.4217 13.4832L19.7144 10.6194C19.7224 10.614 19.7269 10.605 19.735 10.5997C19.7976 10.5558 19.8512 10.5039 19.8968 10.4422C19.8995 10.4386 19.9012 10.4351 19.9039 10.4315Z" fill="#243445"/>
</svg>
