<svg width="17" height="23" viewBox="0 0 17 23" fill="none" xmlns="http://www.w3.org/2000/svg">
<path d="M15.5383 0.780868C15.568 0.746783 15.6112 0.72734 15.6564 0.72734C15.702 0.72734 15.7447 0.746783 15.7749 0.780868L16.8671 1.88216C16.9084 1.92897 16.9185 1.99522 16.893 2.0521C16.8671 2.10851 16.8105 2.145 16.7483 2.145H16.3568V2.92128C16.357 3.00865 16.2867 3.07922 16.1993 3.07922H15.1136C15.0263 3.07922 14.9557 3.00865 14.9557 2.92128V2.145H14.5644C14.5023 2.145 14.4456 2.10851 14.4202 2.0521C14.3945 1.99522 14.405 1.92897 14.4461 1.88216L15.5383 0.780868Z" fill="white"/>
<path d="M10.2958 10.5404C9.84425 10.037 9.39826 9.47464 8.99668 8.96864C8.80729 8.72957 8.62606 8.50153 8.4566 8.29438L8.44411 8.27926C8.69231 7.57235 8.83417 6.99386 8.86586 6.55939C8.94627 5.45258 8.82265 4.73967 8.48828 4.38033C8.26241 4.13717 7.92323 4.05244 7.60422 4.15974C7.37571 4.23631 7.0663 4.44154 6.88939 4.98355C6.62583 5.79151 6.75353 7.22237 7.50293 8.40576C7.16856 9.28141 6.7024 10.2876 6.18752 11.2456C5.20697 11.5894 4.42541 12.0414 3.86444 12.5896C3.13161 13.3049 2.83373 14.0149 3.04688 14.5373C3.17818 14.8608 3.48183 15.0538 3.85892 15.0538C4.12152 15.0538 4.40549 14.959 4.68033 14.7799C5.37428 14.3263 6.28042 12.8148 6.76649 11.9389C7.77201 11.6249 8.7648 11.4965 9.26936 11.4477C9.49764 11.4257 9.72423 11.4081 9.94242 11.3959C10.8255 12.3284 11.5478 12.8203 12.2132 12.9429C12.3471 12.9679 12.4811 12.9804 12.6119 12.9804C13.1541 12.9804 13.6023 12.7641 13.8113 12.4019C13.969 12.1283 13.9659 11.809 13.8025 11.5258C13.4333 10.8865 12.319 10.5346 10.6649 10.5346C10.5459 10.5349 10.423 10.5366 10.2958 10.5404ZM4.21994 14.0766C4.08864 14.1623 3.95374 14.2135 3.85868 14.2135C3.84068 14.2135 3.82844 14.2115 3.82148 14.2099C3.80492 14.1261 3.86444 13.7639 4.45134 13.1904C4.7269 12.9211 5.07543 12.6753 5.48806 12.4578C4.96742 13.2956 4.49886 13.8944 4.21994 14.0766ZM7.68776 5.24447C7.74897 5.057 7.82482 4.97226 7.8721 4.95642C7.8733 4.95618 7.87427 4.9557 7.87523 4.95546C7.92083 5.00683 8.11478 5.3004 8.02789 6.49914C8.01277 6.70821 7.96188 6.97249 7.87619 7.28646C7.59582 6.56443 7.51877 5.76223 7.68776 5.24447ZM9.18823 10.6119C8.74128 10.6549 8.06053 10.7435 7.30106 10.9233C7.59558 10.3352 7.86826 9.73916 8.09606 9.18684C8.17503 9.28573 8.25592 9.38727 8.33802 9.4912C8.61286 9.83758 8.92155 10.2269 9.24152 10.6071L9.18823 10.6119ZM13.0742 11.9461C13.0867 11.9677 13.0864 11.9763 13.0833 11.9821C13.048 12.0433 12.8884 12.1405 12.6107 12.1405C12.5331 12.1405 12.4506 12.1326 12.3654 12.1167C12.0187 12.0526 11.6145 11.8131 11.1328 11.3858C12.44 11.4482 12.9683 11.7634 13.0742 11.9461Z" fill="white"/>
<path d="M12.0763 0.727295H1.20739C0.541284 0.727295 0 1.26714 0 1.93492V21.123C0 21.7901 0.541284 22.3306 1.20739 22.3306H15.6991C16.3667 22.3306 16.9065 21.7901 16.9065 21.123V5.5578L12.0763 0.727295ZM12.0763 2.43468L15.1994 5.5578H12.0763V2.43468ZM15.6994 21.123H1.20739V1.93492H10.8686V5.5578C10.8686 6.22487 11.4087 6.76543 12.076 6.76543H15.6991L15.6994 21.123Z" fill="white"/>
<path d="M6.45839 16.1755C6.35973 16.0884 6.24139 16.025 6.10697 15.9878C5.97423 15.9499 5.78412 15.9307 5.54192 15.9307H4.73804C4.58514 15.9307 4.46992 15.9657 4.39527 16.0356C4.3199 16.1061 4.28125 16.2204 4.28125 16.3747V18.7588C4.28125 18.8975 4.31558 19.0055 4.38327 19.0804C4.45216 19.1572 4.54385 19.1964 4.65571 19.1964C4.76276 19.1964 4.85302 19.1572 4.92359 19.08C4.99272 19.0041 5.02801 18.8946 5.02801 18.7547V17.9393H5.54192C5.93871 17.9393 6.24355 17.8526 6.44734 17.6815C6.65474 17.5082 6.76011 17.2518 6.76011 16.9194C6.76011 16.7646 6.73467 16.6229 6.68402 16.4981C6.63313 16.3716 6.55728 16.2634 6.45839 16.1755ZM5.93895 17.1724C5.89406 17.2329 5.82997 17.2754 5.7426 17.3027C5.6497 17.3315 5.53136 17.3464 5.39022 17.3464H5.02825V16.5212H5.39022C5.71643 16.5212 5.84869 16.5862 5.90126 16.6393C5.97135 16.7141 6.00544 16.8099 6.00544 16.9316C6.00544 17.032 5.98311 17.1128 5.93895 17.1724Z" fill="white"/>
<path d="M9.42768 16.2247C9.29734 16.1107 9.14996 16.0317 8.98961 15.9902C8.83359 15.9498 8.64444 15.9292 8.42816 15.9292H7.6118C7.46081 15.9292 7.348 15.9654 7.27623 16.0375C7.20445 16.1095 7.16797 16.2223 7.16797 16.373V18.6409C7.16797 18.7472 7.17733 18.8324 7.19653 18.9009C7.21838 18.9786 7.26542 19.0394 7.33623 19.0814C7.40369 19.1222 7.49826 19.1419 7.62452 19.1419H8.44089C8.58539 19.1419 8.71741 19.1325 8.83335 19.1138C8.95144 19.0946 9.06354 19.061 9.16628 19.0142C9.26997 18.9669 9.36647 18.903 9.45408 18.8243C9.56378 18.7235 9.65523 18.6075 9.7258 18.4791C9.79566 18.3512 9.84822 18.206 9.88135 18.048C9.91447 17.8915 9.93128 17.716 9.93128 17.5271C9.93104 16.9491 9.76133 16.5108 9.42768 16.2247ZM8.88207 18.3939C8.84151 18.4292 8.79278 18.4575 8.73709 18.4774C8.67876 18.4981 8.62211 18.5113 8.56811 18.5163C8.51122 18.5216 8.4308 18.5245 8.32903 18.5245H7.91424V16.5451H8.26782C8.45289 16.5451 8.61155 16.5653 8.73973 16.6049C8.85951 16.6414 8.96273 16.73 9.0465 16.8687C9.13243 17.0106 9.17612 17.2307 9.17612 17.5233C9.17612 17.9359 9.07746 18.2285 8.88207 18.3939Z" fill="white"/>
<path d="M12.2694 15.9307H10.7927C10.6943 15.9307 10.6146 15.9453 10.5493 15.9753C10.4795 16.007 10.4274 16.0586 10.3942 16.1289C10.3635 16.1947 10.3486 16.2751 10.3486 16.3747V18.7545C10.3486 18.8978 10.3837 19.0079 10.4521 19.0819C10.5219 19.1577 10.6132 19.1964 10.7231 19.1964C10.8309 19.1964 10.9214 19.1584 10.9919 19.0833C11.0606 19.0091 11.0954 18.8985 11.0954 18.7545V17.7955H12.0671C12.1758 17.7955 12.261 17.7693 12.3198 17.7173C12.381 17.6633 12.412 17.5908 12.412 17.5015C12.412 17.4124 12.3817 17.3397 12.3217 17.2854C12.2634 17.2321 12.1777 17.2053 12.0671 17.2053H11.0954V16.5341H12.2697C12.3846 16.5341 12.4732 16.5065 12.533 16.4518C12.5942 16.3961 12.6251 16.3219 12.6251 16.2314C12.6251 16.1429 12.5942 16.0694 12.5327 16.0128C12.4722 15.958 12.3839 15.9307 12.2694 15.9307Z" fill="white"/>
</svg>
