<svg width="25" height="25" viewBox="0 0 25 25" fill="none" xmlns="http://www.w3.org/2000/svg">
<path d="M13.3892 4.64844C13.3892 4.4775 13.3213 4.31356 13.2004 4.19268C13.0795 4.07181 12.9156 4.00391 12.7446 4.00391C12.5737 4.00391 12.4097 4.07181 12.2889 4.19268C12.168 4.31356 12.1001 4.4775 12.1001 4.64844V5.27344H13.3892V4.64844Z" fill="white"/>
<path d="M7.27588 4.5373V4.44707C7.27572 4.32958 7.22898 4.21695 7.14591 4.13388C7.06283 4.0508 6.9502 4.00406 6.83271 4.00391H5.90869V4.98047H6.83271C6.9502 4.98031 7.06283 4.93357 7.14591 4.8505C7.22898 4.76742 7.27572 4.65479 7.27588 4.5373Z" fill="white"/>
<path d="M24.8911 2.67969C24.6235 1.10156 23.5649 0 22.3149 0H4.73677C3.28365 0 2.10005 1.5332 2.10005 3.41797V21.2891H0.879351C0.751844 21.2891 0.625879 21.3169 0.510196 21.3706C0.394514 21.4242 0.291884 21.5023 0.20943 21.5996C0.126345 21.6983 0.065677 21.8139 0.0316183 21.9383C-0.00244038 22.0627 -0.00907803 22.1931 0.012164 22.3203C0.279742 23.8984 1.33834 25 2.58834 25H17.6274C19.0805 25 20.2641 23.4668 20.2641 21.582V3.71094H24.0239C24.1514 3.71087 24.2774 3.68305 24.393 3.62943C24.5087 3.5758 24.6114 3.49765 24.6938 3.40039C24.7769 3.3017 24.8376 3.18614 24.8716 3.06171C24.9057 2.93728 24.9123 2.80694 24.8911 2.67969ZM11.5141 4.64844C11.5141 4.48685 11.5459 4.32684 11.6078 4.17756C11.6696 4.02827 11.7603 3.89262 11.8745 3.77836C11.9888 3.6641 12.1244 3.57347 12.2737 3.51163C12.423 3.4498 12.583 3.41797 12.7446 3.41797C12.9062 3.41797 13.0662 3.4498 13.2155 3.51163C13.3648 3.57347 13.5004 3.6641 13.6147 3.77836C13.7289 3.89262 13.8196 4.02827 13.8814 4.17756C13.9432 4.32684 13.9751 4.48685 13.9751 4.64844V6.83594C13.9751 6.91364 13.9442 6.98816 13.8892 7.0431C13.8343 7.09804 13.7598 7.12891 13.6821 7.12891C13.6044 7.12891 13.5299 7.09804 13.4749 7.0431C13.42 6.98816 13.3891 6.91364 13.3891 6.83594V5.85938H12.1001V6.83594C12.1001 6.91364 12.0692 6.98816 12.0142 7.0431C11.9593 7.09804 11.8848 7.12891 11.8071 7.12891C11.7294 7.12891 11.6549 7.09804 11.5999 7.0431C11.545 6.98816 11.5141 6.91364 11.5141 6.83594V4.64844ZM8.38912 3.71094C8.38912 3.63324 8.41998 3.55872 8.47493 3.50378C8.52987 3.44884 8.60439 3.41797 8.68209 3.41797C8.75979 3.41797 8.8343 3.44884 8.88925 3.50378C8.94419 3.55872 8.97506 3.63324 8.97506 3.71094V6.54297H10.5571C10.6348 6.54297 10.7093 6.57383 10.7642 6.62878C10.8192 6.68372 10.8501 6.75824 10.8501 6.83594C10.8501 6.91364 10.8192 6.98816 10.7642 7.0431C10.7093 7.09804 10.6348 7.12891 10.5571 7.12891H8.97506C8.81966 7.12891 8.67062 7.06717 8.56073 6.95729C8.45085 6.8474 8.38912 6.69837 8.38912 6.54297V3.71094ZM5.32271 4.00391C5.32271 3.84851 5.38444 3.69947 5.49433 3.58959C5.60421 3.4797 5.75325 3.41797 5.90865 3.41797H6.83267C7.10551 3.41828 7.36709 3.5268 7.56001 3.71973C7.75294 3.91265 7.86146 4.17423 7.86177 4.44707V4.5373C7.86146 4.81014 7.75294 5.07172 7.56001 5.26465C7.36709 5.45757 7.10551 5.5661 6.83267 5.56641H5.90865V6.83594C5.90865 6.91364 5.87778 6.98816 5.82284 7.0431C5.7679 7.09804 5.69338 7.12891 5.61568 7.12891C5.53798 7.12891 5.46346 7.09804 5.40852 7.0431C5.35358 6.98816 5.32271 6.91364 5.32271 6.83594V4.00391ZM6.59224 15.1367C6.41841 15.1367 6.24848 15.0852 6.10395 14.9886C5.95941 14.892 5.84676 14.7548 5.78024 14.5942C5.71372 14.4336 5.69631 14.2568 5.73022 14.0863C5.76414 13.9159 5.84784 13.7592 5.97076 13.6363C6.09368 13.5134 6.25029 13.4297 6.42078 13.3958C6.59127 13.3619 6.76799 13.3793 6.92859 13.4458C7.08919 13.5123 7.22645 13.625 7.32303 13.7695C7.4196 13.9141 7.47115 14.084 7.47115 14.2578C7.47115 14.4909 7.37855 14.7145 7.21372 14.8793C7.0489 15.0441 6.82534 15.1367 6.59224 15.1367ZM7.47115 18.3594C7.47115 18.5332 7.4196 18.7031 7.32303 18.8477C7.22645 18.9922 7.08919 19.1049 6.92859 19.1714C6.76799 19.2379 6.59127 19.2553 6.42078 19.2214C6.25029 19.1875 6.09368 19.1038 5.97076 18.9809C5.84784 18.8579 5.76414 18.7013 5.73022 18.5308C5.69631 18.3603 5.71372 18.1836 5.78024 18.023C5.84676 17.8624 5.95941 17.7252 6.10395 17.6286C6.24848 17.532 6.41841 17.4805 6.59224 17.4805C6.82534 17.4805 7.0489 17.5731 7.21372 17.7379C7.37855 17.9027 7.47115 18.1263 7.47115 18.3594ZM6.59224 11.0352C6.41841 11.0352 6.24848 10.9836 6.10395 10.887C5.95941 10.7905 5.84676 10.6532 5.78024 10.4926C5.71372 10.332 5.69631 10.1553 5.73022 9.98478C5.76414 9.81429 5.84784 9.65769 5.97076 9.53477C6.09368 9.41185 6.25029 9.32815 6.42078 9.29423C6.59127 9.26032 6.76799 9.27772 6.92859 9.34425C7.08919 9.41077 7.22645 9.52342 7.32303 9.66796C7.4196 9.81249 7.47115 9.98242 7.47115 10.1562C7.47115 10.3894 7.37855 10.6129 7.21372 10.7777C7.0489 10.9426 6.82534 11.0352 6.59224 11.0352ZM2.58834 24.4141C1.64498 24.4141 0.805133 23.4922 0.590289 22.2227C0.583313 22.1796 0.58563 22.1355 0.597083 22.0934C0.608536 22.0513 0.628861 22.0121 0.656695 21.9785C0.684005 21.9461 0.718089 21.92 0.756554 21.9021C0.795019 21.8842 0.836933 21.875 0.879351 21.875H14.7348C14.8059 21.875 14.8746 21.901 14.9278 21.9482C14.9811 21.9953 15.0153 22.0603 15.0239 22.1309C15.1084 23.0031 15.5076 23.8147 16.1469 24.4141H2.58834ZM16.8461 18.7266C16.8461 18.8105 16.8128 18.891 16.7535 18.9503C16.6941 19.0096 16.6137 19.043 16.5297 19.043H10.5219C10.438 19.043 10.3575 19.0096 10.2982 18.9503C10.2389 18.891 10.2055 18.8105 10.2055 18.7266V17.9922C10.2055 17.9083 10.2389 17.8278 10.2982 17.7685C10.3575 17.7091 10.438 17.6758 10.5219 17.6758H16.5297C16.6137 17.6758 16.6941 17.7091 16.7535 17.7685C16.8128 17.8278 16.8461 17.9083 16.8461 17.9922V18.7266ZM16.8461 14.625C16.8461 14.7089 16.8128 14.7894 16.7535 14.8487C16.6941 14.9081 16.6137 14.9414 16.5297 14.9414H10.5219C10.438 14.9414 10.3575 14.9081 10.2982 14.8487C10.2389 14.7894 10.2055 14.7089 10.2055 14.625V13.8906C10.2055 13.8067 10.2389 13.7262 10.2982 13.6669C10.3575 13.6076 10.438 13.5742 10.5219 13.5742H16.5297C16.6137 13.5742 16.6941 13.6076 16.7535 13.6669C16.8128 13.7262 16.8461 13.8067 16.8461 13.8906V14.625ZM16.8461 10.5234C16.8461 10.6074 16.8128 10.6878 16.7535 10.7472C16.6941 10.8065 16.6137 10.8398 16.5297 10.8398H10.5219C10.438 10.8398 10.3575 10.8065 10.2982 10.7472C10.2389 10.6878 10.2055 10.6074 10.2055 10.5234V9.78906C10.2055 9.70515 10.2389 9.62467 10.2982 9.56533C10.3575 9.50599 10.438 9.47266 10.5219 9.47266H16.5297C16.6137 9.47266 16.6941 9.50599 16.7535 9.56533C16.8128 9.62467 16.8461 9.70515 16.8461 9.78906V10.5234ZM17.2368 6.73438C17.2368 6.82168 17.2075 6.90646 17.1537 6.97519C17.0999 7.04392 17.0246 7.09264 16.9398 7.11357C16.855 7.1345 16.7657 7.12644 16.6861 7.09066C16.6065 7.05489 16.5411 6.99347 16.5004 6.91621L15.2836 4.60371V6.83594C15.2836 6.91364 15.2528 6.98816 15.1978 7.0431C15.1429 7.09804 15.0684 7.12891 14.9907 7.12891C14.913 7.12891 14.8385 7.09804 14.7835 7.0431C14.7286 6.98816 14.6977 6.91364 14.6977 6.83594V3.81309C14.6977 3.72578 14.727 3.641 14.7808 3.57227C14.8346 3.50354 14.9099 3.45482 14.9947 3.43389C15.0794 3.41296 15.1688 3.42102 15.2484 3.4568C15.328 3.49257 15.3934 3.55399 15.434 3.63125L16.6508 5.94316V3.71094C16.6508 3.63324 16.6817 3.55872 16.7366 3.50378C16.7916 3.44884 16.8661 3.41797 16.9438 3.41797C17.0215 3.41797 17.096 3.44884 17.151 3.50378C17.2059 3.55872 17.2368 3.63324 17.2368 3.71094V6.73438ZM24.2465 3.02148C24.2192 3.05394 24.1851 3.08003 24.1467 3.09791C24.1082 3.11579 24.0663 3.12504 24.0239 3.125H20.2758C20.3813 1.70117 21.2563 0.585938 22.3149 0.585938C23.2583 0.585938 24.0981 1.50781 24.3129 2.77734C24.3199 2.82042 24.3176 2.86449 24.3062 2.9066C24.2947 2.9487 24.2744 2.98788 24.2465 3.02148Z" fill="white"/>
</svg>
