<svg width="132" height="75" viewBox="0 0 132 75" fill="none" xmlns="http://www.w3.org/2000/svg">
<path d="M5.26853 64.1618C2.3588 64.1618 -0.0230356 61.7988 0.221872 58.8994C0.781304 52.2764 2.39442 45.7673 5.01304 39.6081C8.32264 31.8237 13.1736 24.7505 19.289 18.7925C25.4043 12.8346 32.6643 8.10845 40.6544 4.88402C48.6445 1.65959 57.2082 -1.10492e-06 65.8566 0C74.505 1.10492e-06 83.0688 1.6596 91.0589 4.88403C99.0489 8.10846 106.309 12.8346 112.424 18.7926C118.54 24.7505 123.391 31.8237 126.7 39.6081C129.319 45.7673 130.932 52.2764 131.491 58.8994C131.736 61.7988 129.354 64.1618 126.445 64.1618C123.535 64.1618 121.203 61.7971 120.912 58.902C120.381 53.6284 119.054 48.45 116.965 43.5367C114.185 36.9978 110.11 31.0563 104.973 26.0516C99.8365 21.0469 93.7382 17.077 87.0265 14.3685C80.3148 11.6599 73.1213 10.2659 65.8566 10.2659C58.5919 10.2659 51.3984 11.6599 44.6867 14.3685C37.9751 17.077 31.8767 21.0469 26.7398 26.0516C21.6029 31.0563 17.5281 36.9978 14.748 43.5367C12.6591 48.45 11.3319 53.6284 10.8011 58.902C10.5097 61.7971 8.17826 64.1618 5.26853 64.1618Z" fill="#243445"/>
<path d="M5.26853 64.1617C2.3588 64.1617 -0.035082 61.7999 0.147947 58.896C0.532506 52.7945 1.76927 47.2206 5.01304 39.608C9.15851 29.8792 13.8763 24.2316 19.289 18.7924C24.7016 13.3532 31.7403 20.9658 26.7398 26.0515C21.7392 31.1373 17.5281 36.9976 14.748 43.5366C12.6591 48.4499 11.3319 53.6283 10.8011 58.9019C10.5097 61.797 8.17826 64.1617 5.26853 64.1617Z" fill="url(#paint0_linear_438_186)"/>
<path d="M32.0253 26.7946L69.2373 57.9259C69.6788 58.2952 69.7181 58.9601 69.3232 59.3789L66.7418 62.1164C66.3469 62.5352 65.6809 62.535 65.2863 62.1159L32.0253 26.7946Z" fill="#243445"/>
<circle cx="65.5" cy="58.5" r="1.5" fill="white"/>
<defs>
<linearGradient id="paint0_linear_438_186" x1="-0.0117737" y1="40.573" x2="28.4423" y2="40.573" gradientUnits="userSpaceOnUse">
<stop stop-color="#1DCDFE"/>
<stop offset="0.5" stop-color="#69CCB0"/>
<stop offset="1" stop-color="#7FF2C3"/>
</linearGradient>
</defs>
</svg>
