<svg width="14" height="14" viewBox="0 0 14 14" fill="none" xmlns="http://www.w3.org/2000/svg">
<path d="M6.9958 0C5.13936 0 3.35896 0.737498 2.04626 2.05025C0.733561 3.36301 -0.00390625 5.14348 -0.00390625 7C-0.00390625 8.85651 0.733561 10.637 2.04626 11.9497C3.35896 13.2625 5.13936 14 6.9958 14C7.91502 14 8.82523 13.8189 9.67447 13.4672C10.5237 13.1154 11.2954 12.5998 11.9453 11.9497C12.5953 11.2997 13.1109 10.5281 13.4627 9.67878C13.8145 8.8295 13.9955 7.91925 13.9955 7C13.9955 6.08075 13.8145 5.17049 13.4627 4.32122C13.1109 3.47194 12.5953 2.70026 11.9453 2.05025C11.2954 1.40024 10.5237 0.884626 9.67447 0.532843C8.82523 0.18106 7.91502 0 6.9958 0ZM9.00435 7.64547L6.22068 10.4293C6.13959 10.5103 6.04335 10.5745 5.93744 10.6183C5.83154 10.6621 5.71805 10.6846 5.60344 10.6845C5.48884 10.6844 5.37538 10.6618 5.26952 10.6179C5.16367 10.574 5.0675 10.5096 4.98652 10.4285C4.90553 10.3474 4.8413 10.2512 4.79751 10.1453C4.75372 10.0394 4.73121 9.92587 4.73128 9.81127C4.73142 9.57981 4.8235 9.35788 4.98725 9.19431L7.18295 7L4.98725 4.80568C4.8235 4.64212 4.73142 4.42019 4.73128 4.18873C4.73114 3.95727 4.82295 3.73524 4.98652 3.57147C5.15008 3.40771 5.37199 3.31563 5.60344 3.31549C5.83489 3.31535 6.05692 3.40717 6.22068 3.57074L9.00435 6.35453C9.08888 6.43885 9.15515 6.53967 9.19901 6.65072C9.24287 6.76178 9.26339 6.88067 9.25928 7V7.028C9.25943 7.25947 9.16775 7.48153 9.00435 7.64547Z" fill="white"/>
</svg>
