<svg width="25" height="15" viewBox="0 0 25 15" fill="none" xmlns="http://www.w3.org/2000/svg">
<path fill-rule="evenodd" clip-rule="evenodd" d="M11.6227 4.2132L9.28641 5.43921V2.98524L11.6227 4.2132ZM0.551512 6.62198V3.59532L0.000385055 3.30553V6.91188L0.551512 6.62198ZM23.8456 11.5486L19.9856 13.5753L19.9824 13.5773L19.7576 13.6951C19.7479 13.702 19.7403 13.7138 19.7371 13.7256C19.7328 13.7403 19.7339 13.757 19.7425 13.7698L20.5054 14.9722C20.513 14.985 20.5281 14.9928 20.5443 14.9978C20.5605 15.0017 20.5789 15.0007 20.593 14.9928L24.9694 12.696C24.9835 12.6892 24.9932 12.6754 24.9975 12.6607C25.0019 12.646 25.0008 12.6292 24.9921 12.6165L24.2281 11.4141C24.2206 11.4013 24.2054 11.3934 24.1892 11.3895C24.173 11.3856 24.1557 11.3866 24.1417 11.3934L23.8477 11.5477L23.8456 11.5486ZM14.3662 5.31751C14.3057 5.21436 14.2906 5.10237 14.3143 5.00217C14.3359 4.91376 14.39 4.83517 14.4732 4.78605L14.5067 4.76837C14.5931 4.73005 14.6936 4.72809 14.7887 4.75461C14.9 4.78605 15.0027 4.85874 15.0708 4.96582L16.6571 7.46303C16.7522 7.61333 16.963 7.66441 17.1283 7.57698C17.2861 7.49446 17.3444 7.31566 17.2666 7.1693C17.2115 7.06615 17.2007 6.95612 17.2288 6.86082C17.2536 6.77339 17.312 6.69873 17.3952 6.65452C17.4795 6.61032 17.5811 6.60246 17.6762 6.62603V6.62702C17.7821 6.65354 17.8815 6.71641 17.9506 6.80974C18.0576 6.95316 18.2716 6.98951 18.4283 6.89324C18.5277 6.83233 18.5807 6.73213 18.5796 6.63094C18.5785 6.52582 18.612 6.42955 18.6725 6.35586C18.7298 6.28611 18.8108 6.23503 18.907 6.2144C19.0086 6.19278 19.1156 6.20457 19.2128 6.24485C19.3177 6.28808 19.4106 6.36274 19.4754 6.46097C19.5727 6.60931 19.7845 6.65843 19.9487 6.56904C20.0838 6.49536 20.1443 6.35095 20.1054 6.21932C20.0784 6.12795 20.0838 6.03758 20.1152 5.96096C20.1443 5.89023 20.1962 5.83129 20.2665 5.79396C20.3064 5.77333 20.3497 5.76056 20.395 5.75565C20.4069 5.75565 20.4188 5.75466 20.4307 5.75368C20.4545 5.7527 20.4783 5.75466 20.502 5.75859C20.5798 5.7694 20.6566 5.80378 20.7246 5.85683L22.3877 8.41095C22.7595 9.05441 22.8286 9.56131 22.8913 10.0191C22.9453 10.413 22.995 10.7745 23.1971 11.1655L19.9358 12.8778L19.3998 12.0467C19.3339 11.9445 19.2139 11.8886 19.0929 11.8925C18.2359 11.9141 17.6448 11.7412 17.178 11.417C16.816 11.1655 16.5156 10.8168 16.2195 10.3934C16.2098 10.3757 16.199 10.359 16.186 10.3443C16.0985 10.2166 16.0109 10.0829 15.9223 9.94345L15.9191 9.93853C15.7862 9.73715 15.7797 9.53771 15.8391 9.34027C15.8661 9.25185 15.905 9.16246 15.9537 9.07208L16.7274 10.2902C16.8225 10.4405 17.0332 10.4916 17.1975 10.4062C17.3628 10.3197 17.419 10.1281 17.3239 9.97883L16.8409 9.2175C16.5696 8.79017 16.4173 8.55244 16.0347 7.9463C16.012 7.9129 15.9947 7.88834 15.9753 7.85298L14.3662 5.31751ZM1.24284 3.41465V6.80195H1.24176C1.24176 6.91001 1.17908 7.01513 1.06886 7.07308L0.000106718 7.63402V9.39346C0.000106718 9.62039 0.101687 9.8267 0.267022 9.97601C0.432361 10.1263 0.658222 10.2187 0.907837 10.2187L15.3029 10.2196C15.0803 9.86107 15.0706 9.51331 15.1743 9.17242C15.2521 8.917 15.3937 8.67533 15.5526 8.44054L15.4067 8.21164C15.398 8.19985 15.3883 8.18413 15.3786 8.16547L13.7781 5.6448L13.7663 5.62319C13.6204 5.38152 13.5836 5.11136 13.6431 4.86676C13.7068 4.60544 13.8786 4.37362 14.1434 4.2351L14.1683 4.22331C14.4287 4.09462 14.7248 4.07792 14.996 4.15553C15.2586 4.23117 15.4985 4.39424 15.6552 4.63001C15.6649 4.64278 15.6736 4.65653 15.6811 4.67029L16.7499 6.3531C16.8309 6.2578 16.9325 6.17529 17.0536 6.11242C17.3032 5.98176 17.5906 5.95622 17.8586 6.02203V6.02105C17.9235 6.03775 17.9862 6.05838 18.0478 6.08491C18.0705 6.04954 18.0942 6.01516 18.1212 5.98176C18.2725 5.79609 18.4897 5.66053 18.7502 5.60453C19.0041 5.54951 19.2678 5.578 19.5012 5.67526C19.5898 5.50039 19.7346 5.35204 19.9248 5.25185C19.9637 5.23122 20.0037 5.21354 20.0437 5.1988L20.0426 0.826172C20.0426 0.605136 19.9464 0.404727 19.7908 0.256399L19.7746 0.242646C19.6103 0.0933248 19.3834 0 19.1338 0H0.90773C0.658105 0 0.431158 0.0933248 0.266916 0.242646C0.101578 0.392951 0 0.598276 0 0.825194V2.58071L1.04823 3.13084C1.16277 3.18291 1.24284 3.28989 1.24284 3.41465ZM7.73093 8.33427C7.61206 8.15253 7.39487 8.03072 7.14631 8.03072C6.89668 8.03072 6.67947 8.15254 6.5606 8.33427H5.47887C5.2876 8.33427 5.13307 8.47475 5.13307 8.64863C5.13307 8.82251 5.2876 8.96299 5.47887 8.96299H6.5606C6.67839 9.14473 6.89666 9.26654 7.14631 9.26654C7.39485 9.26654 7.61314 9.14472 7.73093 8.96299H14.5637C14.755 8.96299 14.9095 8.82251 14.9095 8.64863C14.9095 8.47475 14.755 8.33427 14.5637 8.33427H7.73093ZM10.0208 6.80962C11.5974 6.80962 12.8757 5.64747 12.8757 4.21426C12.8757 2.78098 11.5973 1.6189 10.0208 1.6189C8.44423 1.6189 7.16584 2.78105 7.16584 4.21426C7.16584 5.64754 8.44423 6.80962 10.0208 6.80962Z" fill="white"/>
</svg>
