<svg width="25" height="22" viewBox="0 0 25 22" fill="none" xmlns="http://www.w3.org/2000/svg">
<path fill-rule="evenodd" clip-rule="evenodd" d="M22.8278 17.5911H2.17117C0.972544 17.5911 0 18.5784 0 19.7961C0 21.0138 0.972544 22 2.17117 22H22.8278C24.0275 22 25 21.0138 25 19.7961C25 18.5784 24.0275 17.5911 22.8278 17.5911ZM6.56861 21.2821L8.26657 18.3102H10.7934L9.09544 21.2821H6.56861ZM0.70716 19.7962C0.708164 18.9762 1.36324 18.3112 2.17102 18.3102H4.10206L2.4041 21.2821H2.171C1.36323 21.2811 0.708163 20.6161 0.70716 19.7962ZM22.8268 21.2821H13.2601L14.957 18.3102H22.828C23.2198 18.3051 23.5976 18.4591 23.8759 18.7375C24.1552 19.0169 24.312 19.3983 24.312 19.7961C24.312 20.1938 24.1552 20.5753 23.8759 20.8547C23.5976 21.1331 23.2198 21.2882 22.828 21.282L22.8268 21.2821ZM4.47779 7.83022C4.47879 5.68137 5.34886 3.62833 6.88407 2.14954C8.42028 0.670732 10.486 -0.102313 12.5999 0.0108929C14.7139 0.124099 16.6882 1.11338 18.0625 2.74706L18.1237 2.16064C18.1438 1.9638 18.3177 1.82 18.5126 1.84141C18.7075 1.86181 18.8481 2.03824 18.8281 2.23609L18.6753 3.71592C18.6653 3.81485 18.615 3.90561 18.5367 3.96579C18.4744 4.01168 18.4 4.03718 18.3227 4.03718C18.3026 4.03718 18.2815 4.03616 18.2624 4.03208L16.8317 3.77813L16.8307 3.77915C16.6378 3.74448 16.5092 3.55886 16.5423 3.36303C16.5765 3.16722 16.7594 3.03668 16.9523 3.07033L17.4808 3.16416C16.032 1.47322 13.884 0.574722 11.6836 0.7379C9.48229 0.901078 7.48602 2.10758 6.29542 3.99337C5.10484 5.8791 4.8587 8.22477 5.63232 10.3226C6.40494 12.4205 8.10691 14.0269 10.2247 14.6561C12.3425 15.2853 14.6283 14.8662 16.3946 13.523C18.1608 12.1799 19.2007 10.0696 19.1996 7.83006C19.2057 7.63527 19.3624 7.48026 19.5543 7.48026C19.7462 7.48026 19.9029 7.63528 19.9089 7.83006C19.9361 9.92586 19.1363 11.9453 17.6865 13.4374C16.2358 14.9294 14.2575 15.7688 12.1929 15.7688C10.1283 15.7688 8.14989 14.9295 6.70028 13.4374C5.2505 11.9453 4.44965 9.92621 4.47779 7.83022ZM10.6054 12.2953L13.8817 12.2943C14.0776 12.2943 14.2354 12.1331 14.2354 11.9353V8.1566H15.6249C15.8831 8.15762 16.1182 8.00465 16.2277 7.766C16.3362 7.52837 16.298 7.2479 16.1313 7.04699L12.7495 2.99914C12.6239 2.8482 12.4391 2.76151 12.2431 2.76151C12.0482 2.76151 11.8634 2.8482 11.7368 2.99914L8.3558 7.04804C8.18901 7.24793 8.15184 7.52838 8.26035 7.76602C8.36886 8.00467 8.60295 8.15663 8.86216 8.15663H10.2517V11.9353C10.2507 12.0302 10.2888 12.1219 10.3551 12.1893C10.4215 12.2566 10.5109 12.2943 10.6053 12.2943L10.6054 12.2953Z" fill="white"/>
</svg>
